<svg xmlns="http://www.w3.org/2000/svg" width="120" height="120" viewBox="0 0 31.75 31.75"><path d="M17.755 22.87c-.237 0-.395.157-.395.394s.158.395.395.395.395-.158.395-.395-.158-.395-.395-.395m0-1.58c-.237 0-.395.157-.395.394s.158.395.395.395.395-.158.395-.395-.158-.395-.395-.395m0-1.58c-.237 0-.395.157-.395.394s.158.395.395.395.395-.158.395-.395-.158-.395-.395-.395m-3.682 3.16c-.237 0-.395.157-.395.394s.158.395.395.395.395-.158.395-.395-.158-.395-.395-.395m0-1.58c-.237 0-.395.157-.395.394s.158.395.395.395.395-.158.395-.395-.158-.395-.395-.395m0-1.58c-.237 0-.395.157-.395.394s.158.395.395.395.395-.158.395-.395-.158-.395-.395-.395m1.84-15.95c-.288 0-.565.02-.84.052l-.077.01-.066.042c-.654.421-1.204 1.192-1.714 2.176s-.972 2.188-1.378 3.487c-.813 2.597-1.405 5.573-1.675 7.889a21 21 0 0 0-.162 2.357c0 2.33.755 4.093 1.974 5.219l.097.089h7.684l.096-.09c1.219-1.126 1.974-2.888 1.974-5.218v-.001a21 21 0 0 0-.165-2.357c-.27-2.316-.862-5.291-1.675-7.889-.406-1.299-.867-2.502-1.377-3.486s-1.06-1.755-1.715-2.176l-.065-.043-.078-.009a7 7 0 0 0-.837-.052m0 .671c.223 0 .448.019.673.043.46.322.962.98 1.426 1.875.483.932.934 2.105 1.333 3.378.796 2.546 1.384 5.497 1.649 7.767.104.885.16 1.672.16 2.28 0 2.125-.657 3.647-1.672 4.635h-7.137c-1.014-.987-1.672-2.51-1.672-4.636 0-.605.055-1.394.158-2.28.264-2.269.851-5.22 1.648-7.766.399-1.273.85-2.446 1.333-3.377.465-.896.967-1.554 1.427-1.876.225-.024.447-.043.675-.043m-.054 5.19a2.563 2.563 0 0 0-2.558 2.56 2.56 2.56 0 0 0 2.558 2.555 2.56 2.56 0 0 0 2.558-2.556c0-1.41-1.15-2.56-2.558-2.56m0 .671c1.045 0 1.886.841 1.886 1.888a1.88 1.88 0 0 1-1.886 1.884 1.88 1.88 0 0 1-1.886-1.884c0-1.047.84-1.888 1.886-1.888m-5.534 6.155c-.18.266-1.979 2.824-3.619 3.628-.508.247-.724.799-.77 1.391-.045.593.053 1.28.219 1.998.33 1.435.94 2.987 1.336 3.925.067.158.144.29.252.4.11.11.265.194.431.2.333.015.56-.21.748-.473.588-.829 1.68-2.362 3.285-2.45l.789-.043-.578-.538c-1.058-.984-1.745-2.535-1.745-4.712 0-.605.055-1.394.158-2.28q.046-.392.105-.812zm11.19.125-.61.237c.032.234.063.466.089.685.104.885.16 1.672.16 2.28 0 2.18-.689 3.73-1.748 4.715l-.56.52.762.06c1.566.124 2.638 1.63 3.22 2.447.188.263.414.488.747.474a.66.66 0 0 0 .43-.2c.11-.11.186-.243.253-.4.397-.938 1.007-2.49 1.337-3.926.166-.717.264-1.405.218-1.998s-.262-1.144-.77-1.391c-1.522-.746-3.153-2.958-3.529-3.503m-11.392 1.273A20 20 0 0 0 10 19.773c0 2.017.567 3.607 1.51 4.729-1.612.411-2.622 1.9-3.136 2.624-.122.17-.186.176-.161.18a.6.6 0 0 1-.103-.177c-.39-.921-.988-2.454-1.301-3.816-.157-.68-.24-1.32-.204-1.795s.169-.73.394-.839c1.27-.622 2.401-1.906 3.123-2.834m11.59.108c.72.912 1.81 2.125 3.035 2.726h.001c.226.11.358.365.394.84.037.474-.045 1.114-.202 1.795-.314 1.362-.912 2.894-1.301 3.814a.6.6 0 0 1-.105.177c.026-.003-.037-.008-.16-.179-.508-.714-1.496-2.173-3.071-2.608.95-1.123 1.522-2.718 1.522-4.745v-.001c0-.51-.046-1.14-.113-1.819" style="fill:#000;stroke-width:.41341"/></svg>
