<svg xmlns="http://www.w3.org/2000/svg" width="120" height="120" viewBox="0 0 31.75 31.75"><path d="M15.875 20.504c-.237 0-.395.158-.395.395s.158.395.395.395.395-.158.395-.395-.158-.395-.395-.395m0-1.58c-.237 0-.395.158-.395.395s.158.395.395.395.395-.158.395-.395-.158-.395-.395-.395M9.2 23.269c.205.118.263.334.145.54-.119.205-.335.263-.54.144-.205-.118-.263-.334-.144-.54.118-.205.334-.263.54-.144m.79-1.368c.205.118.263.334.145.54-.119.204-.335.262-.54.144s-.263-.335-.144-.54c.118-.205.334-.263.54-.144m.79-1.369c.205.119.263.335.145.54s-.335.263-.54.144c-.205-.118-.263-.334-.144-.539.118-.205.334-.263.54-.145m11.77 2.737c-.205.118-.263.334-.145.54.119.205.335.263.54.144.205-.118.263-.334.144-.54-.118-.205-.334-.263-.54-.144m-.79-1.368c-.205.118-.263.334-.145.54.119.204.335.262.54.144s.263-.335.144-.54c-.118-.205-.334-.263-.54-.144m-.79-1.369c-.205.119-.263.335-.145.54s.335.263.54.145.263-.335.144-.54c-.118-.205-.334-.263-.54-.145M15.875 2.325c-.491 0-.933.31-1.1.772-.058.16-1.08 3.078-1.176 8.516-.778 1.519-3.118 5.953-4.985 8.248-2.665 3.275-2.247 6.45-2.218 6.64.084.572.58.999 1.157.999h.81v.755a1.17 1.17 0 0 0 2.34 0V27.5h.415v.755c0 .642.528 1.17 1.17 1.17a1.17 1.17 0 0 0 1.17-1.17V27.5h1.919V23.54c0-.279.22-.498.498-.498.28 0 .498.22.498.498V27.5h1.92v.755a1.17 1.17 0 0 0 2.34 0V27.5h.415v.755c0 .642.528 1.17 1.17 1.17a1.17 1.17 0 0 0 1.17-1.17V27.5h.81a1.17 1.17 0 0 0 1.157-.998c.028-.19.446-3.365-2.219-6.64-1.866-2.296-4.207-6.73-4.985-8.25-.095-5.437-1.118-8.356-1.176-8.515a1.17 1.17 0 0 0-1.1-.772zm0 .672c.211 0 .397.13.468.328.034.093 1.055 2.967 1.14 8.382v.078l.036.07c.76 1.486 3.117 5.997 5.096 8.43 2.508 3.083 2.085 6.049 2.075 6.118a.494.494 0 0 1-.493.425h-1.48v1.427c0 .139-.056.261-.147.352a.5.5 0 0 1-.352.146.493.493 0 0 1-.498-.499v-1.426h-1.76v1.427c0 .139-.055.261-.146.352a.5.5 0 0 1-.352.146.493.493 0 0 1-.498-.498v-1.427h-1.919V23.54c0-.642-.528-1.17-1.17-1.17s-1.17.528-1.17 1.17v3.287h-1.918v1.427c0 .139-.056.261-.147.352a.5.5 0 0 1-.352.146.493.493 0 0 1-.498-.499v-1.426h-1.76v1.427a.493.493 0 0 1-.498.498.493.493 0 0 1-.498-.498v-1.427h-1.48a.495.495 0 0 1-.494-.425c-.01-.067-.433-3.034 2.075-6.118 1.98-2.433 4.336-6.943 5.096-8.43l.036-.07v-.078c.085-5.414 1.107-8.29 1.14-8.381a.5.5 0 0 1 .468-.329zm0 4.337c-.642 0-1.17.528-1.17 1.17v2.778c0 .642.528 1.17 1.17 1.17a1.17 1.17 0 0 0 1.17-1.17V8.504c0-.642-.527-1.17-1.17-1.17Zm0 .672c.28 0 .499.219.499.498v2.778c0 .14-.056.261-.146.352a.5.5 0 0 1-.353.146.493.493 0 0 1-.498-.498V8.504c0-.279.22-.498.498-.498z" style="fill:#000;stroke-width:.41341"/></svg>
