<svg xmlns="http://www.w3.org/2000/svg" width="120" height="120" viewBox="0 0 31.75 31.75">
  <path fill="currentColor" d="M15.875 14.623c-.237 0-.395.158-.395.395s.158.395.395.395.395-.158.395-.395-.158-.395-.395-.395m0-1.58c-.237 0-.395.158-.395.395s.158.395.395.395.395-.158.395-.395-.158-.395-.395-.395m0-1.58c-.237 0-.395.158-.395.395s.158.395.395.395.395-.158.395-.395-.158-.395-.395-.395m0-7.774c-1.051 0-1.991.668-2.628 1.774-.546.95-.838 2.136-.838 3.36V28.06h6.932V8.823c0-1.224-.292-2.41-.838-3.36-.637-1.106-1.577-1.774-2.628-1.774m0 .672c.771 0 1.49.472 2.045 1.437.477.828.749 1.91.749 3.025v18.566H13.08V8.823c0-1.116.272-2.197.749-3.025.554-.965 1.274-1.437 2.045-1.437m0 3.177c-.865 0-1.695.324-2.332.909l-.184.168.998 2.063.333-.306a1.75 1.75 0 0 1 1.185-.461c.441 0 .86.163 1.186.461l.332.306.197-.407.801-1.656-.184-.169a3.44 3.44 0 0 0-2.332-.908m0 .672c.616 0 1.205.202 1.689.573l-.4.827a2.42 2.42 0 0 0-2.577 0l-.4-.827a2.76 2.76 0 0 1 1.688-.573m-3.466 8.499c0 .063-.128.373-.382.714s-.605.734-.955 1.125c-1.34 1.5-3.26 3.636-3.26 6.658v1.109h5.269v-9.606zm6.26 0v9.606h5.27v-1.109c0-3.021-1.921-5.157-3.261-6.658-.35-.391-.7-.785-.955-1.125-.254-.34-.382-.65-.382-.714zm.672 1.3c.256.324.541.657.836.987 1.34 1.5 3.09 3.474 3.09 6.21v.437H19.34zm-6.932 0v7.634H8.483v-.437c0-2.736 1.75-4.71 3.09-6.21.295-.33.58-.663.836-.987" style="stroke-width:.41341"/>
</svg>
