<svg xmlns="http://www.w3.org/2000/svg" width="120" height="120" viewBox="0 0 31.75 31.75"><path d="M15.875 3.69c-.415 0-.8.224-1.003.587l-3.932 7.001 2.328 3.973a.5.5 0 0 1 .066.242v9.198l1.39 1.037v1.182c0 .632.52 1.15 1.151 1.15.632 0 1.15-.518 1.15-1.15v-1.182l1.392-1.037v-9.198q0-.13.065-.242l2.328-3.973-3.932-7.001a1.15 1.15 0 0 0-1.003-.588m0 .671c.174 0 .333.093.418.245l3.743 6.665-2.133 3.64a1.15 1.15 0 0 0-.158.582v8.86l-1.391 1.038v1.519c0 .269-.21.479-.479.479a.474.474 0 0 1-.479-.479v-1.52l-1.39-1.036v-8.86a1.15 1.15 0 0 0-.158-.582l-2.133-3.64 3.742-6.666a.48.48 0 0 1 .418-.245m.02 4.518c-1.484 0-2.442 1.069-2.569 1.214-.416.475-.37 1.209.106 1.626a1.147 1.147 0 0 0 1.622-.106l-.004.004c.04-.044.177-.17.34-.269.161-.098.35-.168.506-.168.374 0 .78.41.78.41l-.005-.007a1.156 1.156 0 0 0 1.62.155 1.156 1.156 0 0 0 .155-1.62c-.123-.15-1.05-1.24-2.55-1.24m0 .671c1.163 0 1.967.917 2.033.996a.474.474 0 0 1-.065.674.474.474 0 0 1-.674-.065l-.003-.003-.003-.004s-.506-.64-1.287-.64c-.336 0-.626.127-.854.265a2.2 2.2 0 0 0-.49.393l-.002.002-.002.003a.475.475 0 0 1-.674.042.477.477 0 0 1-.043-.678c.07-.08.915-.984 2.064-.984zm-5.498 2.696-3.553 6.327-1.584 3.719 1.608 2.614c.242.393.698.604 1.154.535l4.354-.665v-9.153zm10.956 0-1.979 3.377v9.153l4.354.665c.456.07.912-.142 1.154-.535l1.608-2.614-1.584-3.719-.01-.016zm-10.944 1.35 1.295 2.21v8.393l-3.783.578a.48.48 0 0 1-.48-.223l-1.427-2.318 1.434-3.366zm10.932 0 2.962 5.274 1.433 3.366-1.426 2.318a.48.48 0 0 1-.48.223l-3.784-.578v-8.393Zm-3.133-3.73-.464.486c.104.1.167.174.184.193l.518-.427a3 3 0 0 0-.238-.252m.496.874-.669.064a.5.5 0 0 1-.052.268l.145.076-.024-.004-.011.137-.161-.13a.5.5 0 0 1-.069.069l-.012.01-.012.011.238.238s-.079.326-.078.327l.06.008.018-.335.214.259.01-.01q.085-.072.153-.155l-.335-.271.033-.141.426.222c.104-.2.147-.423.125-.643zm6.715 4.666c-.632 0-1.15.52-1.15 1.15v2.234l1.79 4.203.34-.553a1.15 1.15 0 0 0 .169-.636l-.001.038.003-.067v-5.218c0-.632-.52-1.15-1.15-1.15zm-19.088 0c-.631 0-1.15.52-1.15 1.15v5.218q.001.054.002.057v-.027c-.007.218.048.44.168.635l.34.554 1.79-4.203v-2.233c0-.632-.518-1.15-1.15-1.15m19.088.672c.268 0 .479.21.479.479V20.9l-.958-2.248v-2.096c0-.269.21-.48.479-.48zm-19.088 0c.269 0 .48.21.48.478v2.097L5.851 20.9v-4.345c0-.268.21-.478.48-.478m2.24 6.829c-.238 0-.396.158-.396.395s.158.395.395.395.395-.158.395-.395-.158-.395-.395-.395m0-1.58c-.238 0-.396.158-.396.395s.158.395.395.395.395-.158.395-.395-.158-.395-.395-.395m14.609 1.58c-.237 0-.395.158-.395.395s.158.395.395.395.395-.158.395-.395-.158-.395-.395-.395m0-1.58c-.237 0-.395.158-.395.395s.158.395.395.395.395-.158.395-.395-.158-.395-.395-.395m-7.305-4.164c-.237 0-.395.158-.395.395s.158.395.395.395.395-.158.395-.395-.158-.395-.395-.395m0-1.58c-.237 0-.395.158-.395.395s.158.395.395.395.395-.158.395-.395-.158-.395-.395-.395m0-1.58c-.237 0-.395.158-.395.395s.158.395.395.395.395-.158.395-.395-.158-.395-.395-.395" style="color:#000;fill:#000;stroke:none;stroke-width:5.99998"/></svg>
