<svg xmlns="http://www.w3.org/2000/svg" width="120" height="120" viewBox="0 0 31.75 31.75">
  <path fill="currentColor" d="M22.461 19.388c.119.205.061.42-.144.54-.206.118-.421.06-.54-.145-.118-.206-.06-.421.145-.54.205-.118.42-.06.54.145m1.369-.79c.118.205.06.42-.145.54-.205.118-.421.06-.54-.145-.118-.206-.06-.421.145-.54.205-.118.421-.06.54.145m1.368-.79c.118.205.06.42-.145.54-.205.118-.42.06-.54-.145-.118-.206-.06-.421.145-.54.206-.118.421-.06.54.145m-15.91 1.58c-.118.205-.06.42.145.54.206.118.422.06.54-.145.119-.206.06-.421-.145-.54-.205-.118-.42-.06-.54.145m-1.367-.79c-.119.205-.061.42.144.54.205.118.421.06.54-.145.118-.206.06-.421-.145-.54-.205-.118-.42-.06-.54.145m-1.369-.79c-.118.205-.06.42.145.54.205.118.42.06.54-.145.118-.206.06-.421-.145-.54-.205-.118-.421-.06-.54.145m9.323-15.019c-.614 0-1.197.242-1.631.676a2.3 2.3 0 0 0-.676 1.632v10.278c-.101.275-.4.985-.923 1.508-.438.437-.874.625-1.412.625-.75 0-1.84-.41-2.87-.953a21.5 21.5 0 0 1-2.623-1.657l-.536-.398v6.603l.085.095c.777.873 1.85 1.825 3.26 2.543 2.096 1.069 3.862 1.314 5.019 1.338v.907l-.585 1.345a1.166 1.166 0 0 0 1.068 1.63H17.7a1.17 1.17 0 0 0 .974-.526c.215-.329.25-.744.094-1.104l-.585-1.346v-.906c1.157-.024 2.923-.269 5.02-1.338a11 11 0 0 0 2.78-2.036q.256-.256.479-.508l.085-.095V14.5l-.536.398a21.4 21.4 0 0 1-2.62 1.657c-1.03.542-2.121.953-2.872.953-.73 0-1.259-.406-1.654-.901a4.6 4.6 0 0 1-.682-1.231V5.096a2.314 2.314 0 0 0-2.307-2.307m0 .672c.905 0 1.635.73 1.635 1.636v10.405l.02.055c.09.25.338.88.809 1.469.47.59 1.195 1.154 2.179 1.154.978 0 2.111-.466 3.184-1.03a21 21 0 0 0 2.172-1.343v5.034a10.337 10.337 0 0 1-2.977 2.302c-2.185 1.113-4.005 1.293-5.046 1.278l-.34-.005v1.71l.64 1.473a.492.492 0 0 1-.452.69H14.05a.492.492 0 0 1-.452-.69l.64-1.474v-1.709l-.34.005c-1.041.015-2.86-.165-5.046-1.278a10.5 10.5 0 0 1-2.977-2.303v-5.033a21 21 0 0 0 2.174 1.342c1.073.565 2.206 1.03 3.183 1.03.708 0 1.351-.285 1.887-.821.666-.666.993-1.499 1.1-1.801l.02-.055V5.097c0-.44.168-.846.479-1.157.31-.31.717-.479 1.156-.479m0 1.32a1.17 1.17 0 0 0-1.165 1.165v2.469c0 .64.526 1.165 1.165 1.165a1.167 1.167 0 0 0 1.165-1.165V5.947a1.17 1.17 0 0 0-1.165-1.165zm0 .672c.276 0 .493.217.493.494v2.468c0 .138-.055.26-.144.349a.5.5 0 0 1-.349.144.49.49 0 0 1-.493-.492v-2.47c0-.276.217-.492.493-.493M4.71 11.5a1.17 1.17 0 0 0-1.165 1.165v8.843a1.166 1.166 0 0 0 2.33 0v-8.843A1.17 1.17 0 0 0 4.711 11.5m21.992 0v.069a1.16 1.16 0 0 0-.829 1.096v8.843c0 .64.526 1.165 1.165 1.165a1.166 1.166 0 0 0 1.165-1.165v-8.843a1.17 1.17 0 0 0-1.165-1.165zm-21.992.672c.276 0 .493.217.493.493v8.843c0 .138-.055.26-.144.349a.49.49 0 0 1-.35.144.49.49 0 0 1-.492-.493v-8.843c0-.276.217-.493.493-.493m22.328 0h.001c.276 0 .492.217.492.493v8.843c0 .138-.055.259-.144.348a.5.5 0 0 1-.349.145.49.49 0 0 1-.493-.493v-8.843c0-.276.217-.493.493-.493" style="stroke-width:.41341"/>
</svg>
