<svg xmlns="http://www.w3.org/2000/svg" width="120" height="120" viewBox="0 0 31.75 31.75"><path d="M15.875 1.062c-.496 0-.941.314-1.107.781-.083.233-1.867 5.301-1.867 11.358 0 1 .052 2.116.133 3.28l-2.907 2.37v-1.855c0-.645-.53-1.176-1.176-1.176s-1.176.531-1.176 1.176v3.771l-2.392 1.95a1.176 1.176 0 0 0 .237 1.973l8.972 4.276.125.747a1.177 1.177 0 0 0 2.317 0l.125-.747 8.971-4.276q.185-.088.326-.23l.003-.003a1.18 1.18 0 0 0-.16-1.794l.02.015-2.344-1.91v-3.772c0-.645-.53-1.176-1.176-1.176s-1.175.531-1.175 1.176v1.854l-.738-.6-2.17-1.77a48 48 0 0 0 .134-3.28c0-6.056-1.784-11.124-1.867-11.357l-.094-.265-.046.008a1.17 1.17 0 0 0-.968-.524m0 .671c.215 0 .403.133.475.335.068.191 1.828 5.208 1.828 11.132 0 1.029-.053 2.19-.142 3.408l-.012.174.135.11 1.502 1.225 4.036 3.29.278.227 1.929 1.572.01.008a.499.499 0 0 1 .07.77l-.003.001a.5.5 0 0 1-.14.099l-9.288 4.426-.028.174c-.085.52-.14.846-.153.914a.5.5 0 0 1-.497.419.5.5 0 0 1-.496-.419c-.012-.068-.068-.394-.153-.915l-.029-.173-9.287-4.426a.504.504 0 0 1-.102-.846l1.967-1.604 1.68-1.37 4.272-3.482-.012-.174a48 48 0 0 1-.142-3.407c0-5.925 1.76-10.942 1.827-11.133a.5.5 0 0 1 .475-.335m-6.924 14.76c.283 0 .504.22.504.503v2.402l-1.008.822v-3.224a.5.5 0 0 1 .504-.504m13.848 0c.283 0 .504.22.504.503v3.223l-1.008-.821v-2.402a.5.5 0 0 1 .504-.504m-6.924 2.3A1.18 1.18 0 0 0 14.7 19.97v4.471c0 .646.53 1.176 1.175 1.176a1.177 1.177 0 0 0 1.176-1.176V19.97a1.18 1.18 0 0 0-1.176-1.176m0 .673c.283 0 .504.221.504.503v4.472a.5.5 0 0 1-.147.357.5.5 0 0 1-.357.147.5.5 0 0 1-.504-.504V19.97c0-.283.222-.504.504-.504m-3.447.588c-.237 0-.395.158-.395.395s.158.395.395.395.395-.158.395-.395-.158-.395-.395-.395m6.894 0c-.237 0-.395.158-.395.395s.158.395.395.395.395-.158.395-.395-.158-.395-.395-.395m-6.894 1.58c-.237 0-.395.158-.395.395s.158.395.395.395.395-.158.395-.395-.158-.395-.395-.395m6.894 0c-.237 0-.395.158-.395.395s.158.395.395.395.395-.158.395-.395-.158-.395-.395-.395m-6.894 1.58c-.237 0-.395.158-.395.395s.158.395.395.395.395-.158.395-.395-.158-.395-.395-.395m6.894 0c-.237 0-.395.158-.395.395s.158.395.395.395.395-.158.395-.395-.158-.395-.395-.395" style="fill:#000;stroke-width:.41341"/></svg>
